<?xml version="1.0" encoding="UTF-8" standalone="no"?>
<svg
   width="512"
   height="512"
   version="1.1"
   id="svg10"
   sodipodi:docname="sapium_logo.svg"
   inkscape:version="1.3.2 (091e20e, 2023-11-25, custom)"
   xmlns:inkscape="http://www.inkscape.org/namespaces/inkscape"
   xmlns:sodipodi="http://sodipodi.sourceforge.net/DTD/sodipodi-0.dtd"
   xmlns="http://www.w3.org/2000/svg"
   xmlns:svg="http://www.w3.org/2000/svg">
  <defs
     id="defs10" />
  <sodipodi:namedview
     id="namedview10"
     pagecolor="#ffffff"
     bordercolor="#000000"
     borderopacity="0.25"
     inkscape:showpageshadow="2"
     inkscape:pageopacity="0.0"
     inkscape:pagecheckerboard="0"
     inkscape:deskcolor="#d1d1d1"
     inkscape:export-bgcolor="#000000ff"
     inkscape:zoom="1.5878906"
     inkscape:cx="196.48708"
     inkscape:cy="172.24108"
     inkscape:window-width="1920"
     inkscape:window-height="1009"
     inkscape:window-x="2552"
     inkscape:window-y="-8"
     inkscape:window-maximized="1"
     inkscape:current-layer="g10" />
  <g
     id="g10"
     transform="matrix(0.97461075,0,0,0.97461075,-133.74587,-36.188485)"
     style="fill:#800080;stroke:#000000;stroke-opacity:1">
    <title
       id="title1">Layer 1</title>
    <g
       id="g9"
       style="fill:#6a0dad;stroke:#6a0dad;stroke-opacity:1;fill-opacity:1">
      <path
         transform="translate(195.813,-0.3125)"
         stroke-width="10"
         stroke="#000000"
         fill="#000000"
         d="m 144.14143,44.0042 c 0.97542,0.0042 1.95083,0.0084 2.95581,0.0127 6.80248,0.10695 12.87979,0.7124 19.23169,3.2998 0.75797,0.29004 1.51594,0.58008 2.29688,0.87891 13.82876,5.6984 25.35514,14.55829 33.36328,27.28515 0.44214,0.60586 0.88429,1.21172 1.33984,1.83594 0.66,0 1.32,0 2,0 1.22335,-1.60415 2.37777,-3.26105 3.5,-4.9375 8.48998,-11.92275 19.90962,-19.8621 33.5,-25.0625 0.73734,-0.30035 1.47469,-0.6007 2.23438,-0.91016 16.42538,-5.62334 34.64101,-2.74114 49.99218,4.41407 13.25314,7.10601 25.20586,18.74337 31.58594,32.37109 2.22742,4.30394 3.83658,5.88235 8.4375,7.4375 0.95262,0.2707 1.90523,0.54141 2.88672,0.82031 12.62351,3.82322 23.48204,14.62998 29.86328,25.86719 7.11691,14.71686 7.11691,14.71686 6.96484,23.21484 -0.46743,8.53628 -0.46743,8.53628 2.90235,15.91016 2.45837,1.36361 2.45837,1.36361 5.17969,2.49609 14.52451,6.78195 22.82161,22.90021 28.76171,36.92969 2.75001,7.96148 3.54773,15.35432 3.50391,23.76172 -8.5e-4,1.5186 -8.5e-4,1.5186 -0.002,3.06787 -0.0798,6.49094 -0.64335,12.14773 -2.7522,18.31494 -0.69079,2.85013 -0.49113,4.5296 0.44141,7.30469 1.5255,1.78405 1.5255,1.78405 3.5,3.375 11.49674,10.95912 18.17181,26.96602 18.73828,42.71484 0.30265,15.86243 -1.4632,28.78864 -9.1272,42.90235 -1.4602,2.8153 -2.25639,4.41193 -1.48999,7.55469 0.45504,0.80953 0.91008,1.61906 1.37891,2.45312 0.46277,0.97195 0.92555,1.94391 1.40234,2.94531 1.01683,2.10611 2.03762,4.21031 3.0625,6.3125 3.75373,8.61185 5.09526,17.08331 5.03516,26.42969 -0.006,1.04583 -0.0114,2.09167 -0.0173,3.16919 -0.34515,15.11099 -5.26959,30.93853 -16.16626,41.8269 -4.32277,4.83302 -4.17094,9.12558 -4.00391,15.37891 -0.21508,21.5202 -7.56275,38.8732 -22.6875,54.37109 -9.56705,9.09177 -22.08654,17.16893 -35.62109,17.82813 -7.96037,0.25196 -7.96037,0.25196 -14.67188,4.17578 -1.48962,2.06702 -2.91637,4.18061 -4.28125,6.33203 -9.34096,14.71424 -26.73626,24.51193 -43.31763,28.81934 -21.97761,4.90285 -43.63281,1.03248 -62.73315,-10.58887 -10.49171,-7.2147 -19.8828,-16.78514 -26,-28 0,-0.66 0,-1.32 0,-2 -0.66,0 -1.32,0 -2,0 -0.25523,0.71543 -0.51047,1.43086 -0.77344,2.16797 -7.51812,17.35871 -24.49645,28.63399 -41.22656,35.83203 -18.59038,7.29035 -40.992,6.13331 -59.17969,-1.76562 -8.10747,-3.73044 -15.23014,-8.16267 -21.82031,-14.23438 -1.16789,-1.06541 -1.16789,-1.06541 -2.35938,-2.15234 -4.049,-3.86558 -6.98443,-7.39011 -9.70312,-12.28516 -2.301,-3.46215 -3.3523,-4.41228 -7.4375,-5.46094 -2.75928,-0.34067 -5.52361,-0.51586 -8.29688,-0.70312 C 36.03833,514.49814 22.39822,503.7666 11.32893,492.3167 -1.29979,477.24674 -6.42378,459.80601 -5.90471,440.43657 c -0.0108,-6.59591 -1.30881,-9.62994 -5.96875,-14.28515 -11.61824,-11.85808 -14.43656,-30.06745 -14.34107,-45.85865 0.35123,-11.57223 3.12116,-21.03838 8.98096,-31.10107 2.22582,-3.68235 2.22582,-3.68235 2.25,-7.875 -0.83531,-1.485 -0.83531,-1.485 -1.6875,-3 -9.06101,-18.27878 -12.74434,-38.97903 -7.10547,-59.01953 4.10739,-11.07398 9.67461,-21.22652 18.60547,-29.10547 2.86227,-2.65662 2.86227,-2.65662 2.5,-6.1875 -0.50791,-1.87292 -1.01584,-3.74584 -1.52417,-5.61865 -5.10754,-20.59843 -0.83909,-40.06826 9.52417,-58.06885 5.79829,-9.43109 13.4857,-19.10964 24.125,-23 2.31495,-0.97225 2.31495,-0.97225 3.875,-3 0.74402,-4.49148 0.81817,-8.80668 0.85156,-13.34766 0.19714,-14.67479 8.22096,-27.71226 18.21485,-37.91796 6.36515,-6.1515 16.02903,-12.76282 25.01562,-14.02735 2.89998,-1.06903 3.36229,-2.90644 4.66797,-5.64453 9.25972,-17.96106 24.41211,-30.25642 43.25,-37.0625 6.3601,-1.94575 12.17793,-2.35122 18.8125,-2.3125 z m -36.57031,38.67188 c -1.4069,1.85816 -1.83629,3.36364 -2.24219,5.64062 0.81082,0.21914 1.62164,0.43828 2.45703,0.66406 11.53045,3.30209 24.43074,8.15637 31.10547,18.83594 0.61552,3.51725 0.37822,6.05069 -0.5625,9.5 -2.72917,3.13052 -4.32419,3.9017 -8.4375,4.5 -4.2882,-0.60185 -6.12335,-1.88624 -9.5625,-4.5 -11.03882,-8.02252 -20.44779,-10.18196 -34,-9 -10.79488,2.24171 -19.05881,8.76066 -25.49219,17.54297 -4.31538,7.03206 -5.72458,13.33247 -5.50781,21.45703 1.30453,0.0374 2.60906,0.0748 3.95312,0.11328 21.91286,0.75996 39.00832,6.01364 55.03516,21.85156 8.08717,8.76858 13.30179,18.76045 17.01172,30.03516 0.2475,0.73477 0.495,1.46953 0.75,2.22656 2.15913,7.76686 2.79491,19.13872 0.25,26.77344 -2.94827,0.98276 -4.92653,1.13415 -8,1.125 -0.86625,0.003 -1.7325,0.005 -2.625,0.008 -2.375,-0.13281 -2.375,-0.13281 -5.375,-1.13281 -1.55291,-4.75007 -2.23097,-9.49756 -2.9375,-14.4375 -2.26075,-14.88326 -9.28302,-27.58835 -21.41797,-36.78516 -11.88026,-7.98452 -22.5951,-9.93032 -36.64453,-8.77734 -7.62248,1.57303 -13.84736,5.35628 -20,10 -0.61617,0.43957 -1.23234,0.87914 -1.86719,1.33203 -5.47071,4.21853 -8.66939,9.77845 -12.13281,15.66797 -0.52723,0.85207 -1.05445,1.70414 -1.59766,2.58203 -5.93934,10.24082 -6.08715,23.81655 -3.57031,35.17188 1.17602,3.58971 2.47241,6.96311 4.27344,10.28515 1.62707,3.56678 1.53729,7.13892 0.89453,10.96094 -1.65528,2.20704 -2.86696,3.35261 -5,5 -10.83432,8.9676 -19.74402,19.66556 -21.22314,34.19141 -1.09442,16.65982 2.82421,29.94176 13.47314,42.99609 10.33336,11.26655 22.24353,15.0551 36.83594,17.19922 3.91406,0.61328 3.91406,0.61328 6.91406,1.61328 0.98276,2.94827 1.13415,4.92653 1.125,8 0.0039,1.29937 0.0039,1.29937 0.0078,2.625 -0.13281,2.375 -0.13281,2.375 -1.13281,5.375 -11.74928,3.91643 -25.85508,0.42458 -36.58594,-4.71875 -4.90374,-2.60064 -9.66312,-5.41325 -14.41406,-8.28125 -0.81605,1.91516 -1.62771,3.83219 -2.4375,5.75 -0.45246,1.06734 -0.90492,2.13469 -1.37109,3.23438 -4.11734,10.42158 -3.59745,23.92241 0.48437,34.27734 3.79008,7.83729 8.34023,14.25315 14.72266,20.17969 2.13599,2.07868 2.59155,3.05875 2.65161,6.05786 -0.0307,1.03793 -0.06139,2.07587 -0.09302,3.14526 -0.38211,17.93795 0.15812,30.47552 11.04297,45.35547 0.47309,0.65742 0.94617,1.31484 1.43359,1.99219 6.66172,8.49227 17.04029,14.70679 27.56641,17.00781 1.4662,0.11922 2.93596,0.19916 4.40625,0.24609 0.82629,0.0329 1.65258,0.0657 2.50391,0.0996 1.72642,0.0612 3.453,0.11849 5.17968,0.17188 0.82629,0.0342 1.65258,0.0683 2.50391,0.10351 0.74959,0.0251 1.49918,0.0501 2.27148,0.0759 2.43758,0.34596 4.0476,1.00401 6.13477,2.30298 1.82422,2.6875 1.82422,2.6875 3.6875,6 8.83348,15.01399 21.26743,25.10697 38.04297,30.11328 14.5413,3.44877 30.19707,1.34098 42.95703,-6.30078 14.31586,-9.79397 25.57088,-23.24513 29.80469,-40.375 2.5192,-17.05307 1.02666,-34.24873 -9.49219,-48.4375 -13.71199,-17.15293 -29.37445,-24.06628 -50.8125,-26.57031 -3.1875,-0.42969 -3.1875,-0.42969 -6.1875,-1.42969 -0.98276,-2.94827 -1.13415,-4.92653 -1.125,-8 -0.003,-0.86625 -0.005,-1.7325 -0.008,-2.625 0.13281,-2.375 0.13281,-2.375 1.13281,-5.375 14.24984,-4.74995 31.52971,0.4585 44.4375,6.8125 6.05151,3.11722 11.43849,6.68604 16.5625,11.1875 1.20916,1.03946 2.41946,2.07761 3.63062,3.11475 0.63083,0.5403 1.26166,1.08061 1.9116,1.63729 0.48107,0.41183 0.96214,0.82366 1.45778,1.24796 0.0467,-24.50436 0.082,-49.00872 0.10362,-73.51312 0.0103,-11.37797 0.0244,-22.75591 0.0473,-34.13385 0.0199,-9.9177 0.0328,-19.83538 0.0373,-29.75309 0.003,-5.25072 0.009,-10.50137 0.0233,-15.75207 0.0136,-4.9444 0.0178,-9.88872 0.0148,-14.83314 5.4e-4,-1.81238 0.005,-3.62477 0.0122,-5.43713 0.01,-2.48023 0.008,-4.96016 0.002,-7.44039 0.006,-0.71209 0.0117,-1.42418 0.0177,-2.15784 -0.0473,-8.01822 -1.62973,-15.08078 -7.25816,-20.97937 -4.97051,-3.67817 -9.46889,-4.69717 -15.54687,-5.60547 -2.45313,-0.39453 -2.45313,-0.39453 -5.45313,-1.39453 -0.98276,-2.94827 -1.13415,-4.92653 -1.125,-8 -0.003,-0.86625 -0.005,-1.7325 -0.008,-2.625 0.13281,-2.375 0.13281,-2.375 1.13281,-5.375 3.34695,-1.11565 5.97396,-1.20319 9.5,-1.25 1.71703,-0.0387 1.71703,-0.0387 3.46875,-0.0781 3.42639,0.11735 6.48875,0.91988 9.7832,1.84863 0.98456,0.27547 1.96913,0.55095 2.98352,0.83478 0.7473,0.21275 1.49459,0.42551 2.26453,0.64471 0.0466,-9.81501 0.082,-19.63 0.10362,-29.4451 0.0104,-4.55879 0.0245,-9.1175 0.0473,-13.67624 0.0219,-4.40909 0.0337,-8.8181 0.0389,-13.22724 0.004,-1.67229 0.0108,-3.34458 0.0217,-5.01684 0.12959,-20.73893 -2.38417,-37.35621 -16.21146,-53.63458 C 167.27946,69.0028 155.5326,64.77148 140.7271,65.04734 127.06789,65.64262 116.99636,73.38603 107.57085,82.67625 Z M 234.32893,76.3167 c -0.84562,0.5775 -1.69125,1.155 -2.5625,1.75 -3.86099,3.56399 -6.57991,7.86473 -9.4375,12.25 -0.60908,0.91846 -0.60908,0.91846 -1.23047,1.85547 -8.00518,12.91257 -6.91424,28.37762 -6.86719,42.96484 0.002,1.71207 0.003,3.42414 0.004,5.1362 0.004,4.47482 0.0136,8.94961 0.0247,13.42441 0.0103,4.57875 0.0148,9.15751 0.0198,13.73627 0.0107,8.96095 0.0277,17.92188 0.0488,26.88281 0.74729,-0.21276 1.49459,-0.42551 2.26453,-0.64471 0.98456,-0.27548 1.96912,-0.55096 2.98352,-0.83478 0.97417,-0.27463 1.94833,-0.54926 2.95202,-0.83222 3.58741,-0.88187 6.60821,-1.02144 10.29993,-0.93829 1.16531,0.0155 2.33062,0.0309 3.53125,0.0469 2.96875,0.20312 2.96875,0.20312 5.96875,1.20312 0.98276,2.94827 1.13415,4.92653 1.125,8 0.004,1.29937 0.004,1.29937 0.008,2.625 -0.13281,2.375 -0.13281,2.375 -1.13281,5.375 -2.56154,0.75831 -5.0159,1.34884 -7.625,1.875 -7.7034,1.75285 -13.30353,3.50412 -17.75,10.5625 -2.61848,5.74052 -2.77053,11.23062 -2.74525,17.4592 -8.6e-4,0.77692 -0.002,1.55383 -0.003,2.35429 -0.002,2.59328 0.004,5.1865 0.009,7.77977 2.9e-4,1.86293 1.3e-4,3.72586 -4.4e-4,5.58879 -2.8e-4,5.05115 0.006,10.10227 0.0126,15.15341 0.006,5.28109 0.007,10.56219 0.008,15.84328 0.003,9.99773 0.0113,19.99546 0.0214,29.99318 0.0112,11.38324 0.0167,22.76647 0.0217,34.14971 0.0105,23.41363 0.028,46.82725 0.0503,70.24087 1.12327,-0.96159 2.24636,-1.92338 3.36938,-2.88525 0.62545,-0.53558 1.25089,-1.07115 1.89528,-1.62296 1.28158,-1.10171 2.55552,-2.21232 3.82518,-3.32773 15.9825,-13.31311 35.42406,-18.57929 55.91016,-17.16406 0.99,0.33 1.98,0.66 3,1 0.98276,2.94827 1.13415,4.92653 1.125,8 0.004,1.29937 0.004,1.29937 0.008,2.625 -0.13281,2.375 -0.13281,2.375 -1.13281,5.375 -5.00355,1.70121 -9.94649,2.22715 -15.1875,2.8125 -15.99108,2.08027 -29.50694,9.73232 -39.8125,22.1875 -10.9198,14.88699 -13.7415,29.92503 -12,48 0.86452,4.59539 2.15835,8.70883 4,13 0.37383,0.88816 0.74766,1.77633 1.13281,2.69141 6.77701,14.69848 18.98038,26.01641 33.6836,32.5625 13.69388,5.01934 29.8373,4.53069 43.18359,-1.25391 0.92812,-0.4009 1.85625,-0.8018 2.8125,-1.21484 13.19638,-6.46698 21.8328,-16.71774 28.62109,-29.48047 1.74768,-2.5714 2.73308,-3.16061 5.56641,-4.30469 2.02368,-0.25537 2.02368,-0.25537 4.16016,-0.27344 0.78842,-0.0176 1.57684,-0.0353 2.38916,-0.0535 0.82935,-0.0159 1.6587,-0.0317 2.51318,-0.0481 11.85018,-0.44458 20.42422,-3.47189 29.9375,-10.625 0.59297,-0.40477 1.18594,-0.80953 1.79688,-1.22656 4.17891,-3.12461 7.02652,-7.08352 9.89062,-11.39844 0.36867,-0.54334 0.73734,-1.08668 1.11719,-1.64648 7.28664,-11.48238 7.61036,-22.43891 6.77539,-35.65821 -0.34429,-10.03354 -0.34429,-10.03354 3.66992,-14.59375 1.23398,-1.1759 2.48273,-2.33662 3.75,-3.47656 10.83854,-13.40508 14.45817,-25.92387 13,-43 -1.28866,-6.06054 -3.07605,-11.16533 -7,-16 -0.70125,0.45891 -1.4025,0.91781 -2.125,1.39063 -14.6828,9.49594 -27.28896,13.66902 -44.875,12.60937 -0.99,-0.33 -1.98,-0.66 -3,-1 -0.98276,-2.94827 -1.13415,-4.92653 -1.125,-8 -0.003,-0.86625 -0.005,-1.7325 -0.008,-2.625 0.13281,-2.375 0.13281,-2.375 1.13281,-5.375 3.66246,-1.19734 7.10043,-1.90165 10.92969,-2.32031 14.11404,-1.62191 26.03376,-8.01716 35.03125,-19.09375 9.65753,-13.16195 12.38881,-26.52353 11.03906,-42.58594 -2.83521,-15.29653 -12.66634,-26.36644 -25,-35 -1.76593,-3.53186 -1.5106,-7.18424 -1,-11 1.1075,-3.19456 2.39897,-6.22853 3.80859,-9.30078 4.12093,-9.33626 3.58313,-22.6043 0.62891,-32.19922 -5.55447,-14.09372 -15.47403,-26.04624 -29.3125,-32.4375 -10.5859,-4.55225 -23.40496,-4.90427 -34.25,-0.9375 -5.21554,2.31875 -9.54534,5.18908 -13.875,8.875 -0.84563,0.5775 -1.69125,1.155 -2.5625,1.75 -3.86099,3.56399 -6.57991,7.86473 -9.4375,12.25 -0.60908,0.91846 -0.60908,0.91846 -1.23047,1.85547 -5.11358,8.24835 -6.244,17.47262 -7.33984,26.92187 -0.42969,3.22266 -0.42969,3.22266 -1.42969,6.22266 -2.94827,0.98276 -4.92653,1.13415 -8,1.125 -0.86625,0.003 -1.7325,0.005 -2.625,0.008 -2.375,-0.13281 -2.375,-0.13281 -5.375,-1.13281 -4.54351,-13.63052 0.40293,-29.88716 6.1875,-42.25 9.33083,-17.62711 24.10801,-30.07377 43.12109,-36.02344 4.19591,-1.13271 8.2111,-1.8468 12.55469,-2.04297 0.88623,-0.0419 1.77246,-0.0838 2.68555,-0.12695 0.91201,-0.0393 1.82402,-0.0786 2.76367,-0.11914 1.39702,-0.0648 1.39702,-0.0648 2.82227,-0.13086 2.28827,-0.10561 4.57665,-0.20772 6.86523,-0.30664 0.27099,-10.15675 -2.4043,-18.07312 -9.02734,-25.93359 -7.8612,-8.2348 -16.36228,-13.01917 -27.89161,-13.53736 -12.15597,-0.1697 -20.32206,3.3833 -29.86621,10.76392 -3.84339,2.96219 -6.3546,3.11892 -11.21484,2.70703 -2.93722,-1.53246 -4.51635,-2.67066 -5.66797,-5.83594 -0.69812,-3.60811 -0.50872,-5.74 0.91797,-9.16406 7.77321,-9.80333 20.79395,-15.51855 32.75,-18 -3.3356,-9.59193 -12.36265,-15.38853 -21,-20 -16.13254,-7.63318 -34.90487,-3.14814 -48,8 z"
         id="path1"
         style="fill:#6a0dad;stroke:#6a0dad;stroke-opacity:1;fill-opacity:1" />
      <path
         transform="translate(396,165.375)"
         stroke-width="10"
         stroke="#000000"
         fill="#000000"
         d="m 144.14143,44.0042 c 0.825,-0.01289 1.65,-0.02578 2.5,-0.03906 3.71998,0.98812 5.19506,2.61507 7.5,5.66406 0.52191,2.83673 0.71777,4.93038 0.625,7.75 -0.0221,1.11121 -0.0221,1.11121 -0.0447,2.24487 -0.87039,20.16802 -10.90685,36.16839 -25.39282,49.69263 -9.67225,8.07604 -20.23928,12.02219 -32.1875,15.3125 4.13521,8.39851 8.71548,13.44987 17.42969,17.17188 2.9352,0.94568 5.76517,1.36027 8.82031,1.76562 3.77613,0.57316 5.69025,1.02573 9,3.0625 2.14109,3.67045 2.34866,6.31427 2.41406,10.5 -0.98165,3.69564 -2.65391,5.19479 -5.66406,7.5 -12.70038,2.38595 -24.94553,-1.87072 -35.39844,-8.96484 -8.93382,-6.98878 -16.32398,-16.51417 -18.25781,-27.89844 -0.11344,-1.03512 -0.22688,-2.07024 -0.34375,-3.13672 -0.89461,-0.17016 -1.78922,-0.34031 -2.71094,-0.51562 -13.966,-2.79916 -26.63206,-7.31776 -36.63672,-17.98829 -2.20364,-3.3289 -2.29224,-5.44803 -2.09765,-9.33984 0.7552,-3.65675 2.42349,-5.09884 5.44531,-7.15625 3.8873,-1.13085 6.06659,-1.34496 9.875,0.0625 2.51992,1.56235 4.93806,3.19052 7.375,4.875 11.62089,7.90457 24.01493,9.41524 37.75,8.0625 6.89346,-1.44008 13.49294,-4.64558 19,-9 0.63293,-0.49113 1.26586,-0.98227 1.91797,-1.48828 10.3694,-8.46283 16.37197,-20.24452 17.8916,-33.52686 0.18112,-1.88781 0.31215,-3.78022 0.44043,-5.67236 1.31001,-5.78586 4.75058,-9.03124 10.75,-8.9375 z"
         id="path2"
         style="fill:#6a0dad;stroke:#6a0dad;stroke-opacity:1;fill-opacity:1" />
      <path
         transform="translate(116,165.375)"
         stroke-width="10"
         stroke="#000000"
         fill="#000000"
         d="m 144.14143,44.0042 c 0.825,-0.01289 1.65,-0.02578 2.5,-0.03906 3.76314,0.99958 5.16739,2.56189 7.5,5.66406 0.90818,3.04739 1.2351,6.09383 1.5625,9.25 0.89981,6.83079 1.82447,12.76515 5.4375,18.75 0.42023,0.74121 0.84047,1.48242 1.27344,2.24609 6.81753,11.16794 16.81234,17.67751 29.04297,21.89844 4.25423,0.98799 8.14606,1.19977 12.49609,1.16797 0.79463,-0.005 1.58925,-0.01 2.40796,-0.0149 11.37093,-0.22661 20.4347,-4.13544 29.40454,-11.04761 3.38298,-2.46887 6.11668,-3.25 10.375,-3.25 4.01519,1.51517 5.60368,2.40553 8,6 0.37109,2.05078 0.37109,2.05078 0.4375,4.3125 0.0599,1.10795 0.0599,1.10795 0.12109,2.23828 -1.38416,6.06903 -6.93451,9.84798 -11.93359,13.01172 -0.90214,0.57524 -0.90214,0.57524 -1.82251,1.16211 -8.54909,5.21482 -17.87282,8.05796 -27.80249,9.27539 -0.0413,0.9075 -0.0825,1.815 -0.125,2.75 -1.70829,11.42707 -9.61934,21.35631 -18.47656,28.28516 -10.45291,7.09412 -22.69806,11.35079 -35.39844,8.96484 -3.01015,-2.30521 -4.68241,-3.80436 -5.66406,-7.5 0.0193,-1.2375 0.0193,-1.2375 0.0391,-2.5 -0.0129,-0.825 -0.0258,-1.65 -0.0391,-2.5 0.97962,-3.68799 2.6833,-5.16654 5.66406,-7.5 3.45313,-0.96875 3.45313,-0.96875 7.25,-1.5 10.33088,-1.74271 16.19355,-4.94426 22.4375,-13.41406 1.46329,-2.14235 1.46329,-2.14235 2.3125,-5.08594 -1.52367,-0.41959 -1.52367,-0.41959 -3.07812,-0.84766 -20.46755,-5.86213 -36.80782,-17.88715 -47.27735,-36.69921 -4.52022,-9.4914 -7.05997,-19.17372 -7.26953,-29.70313 -0.0231,-0.70278 -0.0463,-1.40556 -0.0701,-2.12964 0.0581,-3.76796 0.63297,-5.53821 2.92163,-8.56567 2.936,-2.17512 4.18056,-2.73583 7.77344,-2.67969 z"
         id="path3"
         style="fill:#6a0dad;stroke:#6a0dad;stroke-opacity:1;fill-opacity:1" />
      <path
         transform="translate(393,388.625)"
         stroke-width="10"
         stroke="#000000"
         fill="#000000"
         d="m 144.14143,44.0042 c 1.04801,-0.05607 1.04801,-0.05607 2.11719,-0.11328 3.89085,-0.06607 5.69821,0.35044 8.84375,2.69922 2.1519,2.9434 2.72009,4.20311 2.66406,7.78906 0.0193,1.2375 0.0193,1.2375 0.0391,2.5 -0.9919,3.73421 -2.60533,5.17297 -5.66406,7.5 -2.77943,0.83369 -5.55635,1.09368 -8.4375,1.375 -12.60645,1.66607 -24.40396,6.70312 -32.39063,16.97656 -1.80203,2.5062 -3.50515,5.05068 -5.17187,7.64844 -0.40348,0.60973 -0.80695,1.21945 -1.22266,1.84766 -5.12571,8.24401 -6.19128,17.26064 -6.95703,26.73437 -1.01298,4.22078 -2.3917,5.805 -5.82031,8.41797 -2.5,0.66406 -2.5,0.66406 -5,0.625 -1.2375,0.0193 -1.2375,0.0193 -2.5,0.0391 -3.72566,-0.98963 -5.19734,-2.60464 -7.5,-5.66406 -0.49068,-2.87091 -0.6707,-5.02582 -0.5625,-7.875 0.02598,-1.12112 0.02598,-1.12112 0.05249,-2.26489 0.84905,-20.43563 10.72921,-37.7418 25.32251,-51.61011 12.02645,-10.3907 26.29183,-16.30239 42.1875,-16.625 z"
         id="path4"
         style="fill:#6a0dad;stroke:#6a0dad;stroke-opacity:1;fill-opacity:1" />
      <path
         transform="translate(130.223,389.441)"
         stroke-width="10"
         stroke="#000000"
         fill="#000000"
         d="m 144.14143,44.0042 c 19.20765,4.11039 34.67322,16.79522 45.46484,32.80859 3.6471,5.94527 6.13697,12.13843 8.3125,18.75 0.2475,0.73477 0.495,1.46954 0.75,2.22657 1.4104,5.0735 1.54303,10.28705 1.6875,15.52343 0.0346,0.7338 0.0691,1.4676 0.10474,2.22364 0.0301,3.92873 -0.39138,5.82363 -2.75708,9.00293 -2.93987,2.13583 -4.20987,2.7043 -7.78516,2.64843 -1.2375,0.0193 -1.2375,0.0193 -2.5,0.0391 -3.68803,-0.97964 -5.17922,-2.67561 -7.5,-5.66407 -0.78515,-3.34765 -0.78515,-3.34765 -1.0625,-7.0625 -1.38515,-13.80095 -6.26369,-26.59792 -16.9375,-35.9375 -0.47566,-0.46664 -0.95132,-0.93328 -1.4414,-1.41406 -8.44146,-7.93294 -18.00764,-11.23444 -29.3274,-12.3855 -4.01404,-0.48091 -5.91786,-0.96227 -9.22729,-3.47778 -2.13694,-2.9034 -2.68439,-4.17184 -2.62891,-7.72266 -0.0129,-0.825 -0.0258,-1.65 -0.0391,-2.5 2.94414,-11.08381 16.09271,-8.2631 24.88672,-7.05859 z"
         id="path5"
         style="fill:#6a0dad;stroke:#6a0dad;stroke-opacity:1;fill-opacity:1" />
      <path
         transform="translate(319.875,308.438)"
         stroke-width="10"
         stroke="#000000"
         fill="#000000"
         d="m 144.14143,44.0042 c 1.25986,0.02381 1.25986,0.02381 2.54517,0.0481 22.43405,0.80584 43.70503,12.06631 59.57983,27.5144 2.93736,3.17292 5.53215,6.45212 8,10 0.89912,1.28777 0.89912,1.28777 1.81641,2.60156 3.18027,4.88478 5.14477,8.39105 4.18359,14.39844 -0.8881,2.90652 -1.80223,3.84178 -4.1875,5.75 -3.62747,1.61221 -5.87499,1.80263 -9.8125,1.25 -5.09381,-3.18363 -7.98893,-7.54206 -11.28906,-12.5 -9.13005,-13.34071 -23.63507,-21.91853 -39.21094,-25.8125 -2.80413,-0.5217 -5.5787,-0.79064 -8.42187,-1.0625 -0.71092,-0.07307 -1.42184,-0.14615 -2.1543,-0.22144 -1.41595,-0.14073 -2.83419,-0.26047 -4.25391,-0.35595 -3.71073,-0.35684 -5.63572,-1.02135 -8.61523,-3.30933 -2.18813,-2.91611 -2.73572,-4.15213 -2.67969,-7.73828 -0.0129,-0.825 -0.0258,-1.65 -0.0391,-2.5 2.04395,-7.69489 7.71605,-8.28968 14.53906,-8.0625 z"
         id="path6"
         style="fill:#6a0dad;stroke:#6a0dad;stroke-opacity:1;fill-opacity:1" />
      <path
         transform="translate(191.75,308.563)"
         stroke-width="10"
         stroke="#000000"
         fill="#000000"
         d="m 144.14143,44.0042 c 0.82371,-0.03287 1.64742,-0.06574 2.49609,-0.09961 4.31713,-0.03823 6.20815,0.13937 9.79297,2.75195 2.06579,2.93408 2.64118,4.24952 2.58594,7.78516 0.0193,1.2375 0.0193,1.2375 0.0391,2.5 -1.00734,3.79235 -2.51408,5.16846 -5.66406,7.5 -3.27704,0.9036 -6.55889,1.1934 -9.9375,1.5 -13.0291,1.53026 -24.13887,4.9703 -35.0625,12.5 -1.15436,0.78504 -1.15436,0.78504 -2.33203,1.58594 -6.78195,4.92182 -11.46664,11.06112 -16.39453,17.76172 -0.52336,0.71027 -1.04672,1.42054 -1.58594,2.15234 -0.44988,0.62906 -0.89977,1.25812 -1.36328,1.90625 -2.35584,2.83535 -4.05663,3.56897 -7.69922,3.90625 -3.85795,-0.33258 -5.62698,-0.91408 -8.625,-3.3125 -2.58253,-3.44337 -2.32725,-6.81901 -2,-11 1.26426,-2.54285 2.46127,-4.63826 4.0625,-6.9375 0.41266,-0.6119 0.82532,-1.2238 1.25049,-1.85425 13.63615,-19.90519 34.81978,-32.88617 58.34204,-37.82446 4.03205,-0.65991 8.01562,-0.79201 12.09497,-0.82129 z"
         id="path7"
         style="fill:#6a0dad;stroke:#6a0dad;stroke-opacity:1;fill-opacity:1" />
      <path
         transform="translate(311,83)"
         stroke-width="10"
         stroke="#000000"
         fill="#000000"
         d="m 144.14143,44.0042 c 3.125,1.875 3.125,1.875 5,5 0.98877,5.02623 0.77692,8.70514 -1.875,13.125 -4.41986,2.65192 -8.09877,2.86377 -13.125,1.875 -3.125,-1.875 -3.125,-1.875 -5,-5 -0.98877,-5.02623 -0.77692,-8.70514 1.875,-13.125 4.41986,-2.65192 8.09877,-2.86377 13.125,-1.875 z"
         id="path8"
         style="fill:#6a0dad;stroke:#6a0dad;stroke-opacity:1;fill-opacity:1" />
      <path
         transform="translate(211,83)"
         stroke-width="10"
         stroke="#000000"
         fill="#000000"
         d="m 144.14143,44.0042 c 3.125,1.875 3.125,1.875 5,5 0.98877,5.02623 0.77692,8.70514 -1.875,13.125 -4.41986,2.65192 -8.09877,2.86377 -13.125,1.875 -3.125,-1.875 -3.125,-1.875 -5,-5 -0.98877,-5.02623 -0.77692,-8.70514 1.875,-13.125 4.41986,-2.65192 8.09877,-2.86377 13.125,-1.875 z"
         id="path9"
         style="fill:#6a0dad;stroke:#6a0dad;stroke-opacity:1;fill-opacity:1" />
    </g>
  </g>
</svg>
